# xmcd CD database file
# Copyright (C) 1995 Ti Kan
#
# Track frame offsets:
#	151
#	18811
#	37605
#	63038
#	86185
#	100562
#	119136
#	143194
#	159980
#	181717
#	200570
#
# Disc length: 2927 seconds
#
# Revision: 1
# Processed by: cddbd v1.4PL0 Copyright (c) Steve Scherf et al.
# Submitted via: NotifyCDPlayer(CDDB) 1.60beta5_freedb
#
DISCID=810b6d0b
DTITLE=Deák Bill Gyula - Bill Kapitány blues cirkusza
DYEAR=1900
DGENRE=
TTITLE0=Bill Kapitány blues I.
TTITLE1=Romalány blues
TTITLE2=Rekedten száll az ének
TTITLE3=Kocsma blues
TTITLE4=Halálos tánc
TTITLE5=Fekete vonat blues
TTITLE6=Bill Kapitány blues cirkusza
TTITLE7=Elképesztõ blues
TTITLE8=A gyermekeim
TTITLE9=Üvöltsön a szél
TTITLE10=Bill Kapitány blues I. (koncertfelvétel)
EXTD=
EXTT0=
EXTT1=
EXTT2=
EXTT3=
EXTT4=
EXTT5=
EXTT6=
EXTT7=
EXTT8=
EXTT9=
EXTT10=
PLAYORDER=
